<svg id="Filled_stroke_cutting_expand" height="512" viewBox="0 0 512 512" width="512" xmlns="http://www.w3.org/2000/svg" data-name="Filled stroke cutting expand"><g><path d="m168 84v-60h100a20 20 0 0 1 20 20v60h-100a20 20 0 0 1 -20-20z" fill="#f29a49"/><path d="m326 104h-38v-64l34.325 11.442a20 20 0 0 1 13.675 18.973v23.585a10 10 0 0 1 -10 10z" fill="#804913"/><path d="m200 24h36a20 20 0 0 1 20 20v60a0 0 0 0 1 0 0h-36a20 20 0 0 1 -20-20v-60a0 0 0 0 1 0 0z" fill="#fac850"/><g><path d="m64 488v-107.478a30 30 0 0 1 19.127-27.96l124.873-48.562h96l124.873 48.562a30 30 0 0 1 19.127 27.96v107.478z" fill="#f29a49"/><g><path d="m184.042 349.319a51.864 51.864 0 0 0 39.922 18.681h64.072a52.017 52.017 0 0 0 51.969-50l-36-14h-96.005l-36 14a51.849 51.849 0 0 0 12.042 31.319z" fill="#804913"/><path d="m288.036 336h-64.072a20 20 0 0 1 -19.677-23.578l11.713-64.422h80l11.713 64.422a20 20 0 0 1 -19.677 23.578z" fill="#ffd4cf"/><path d="m296 248h-80l-3.874 21.309 11.911 10.122a36.034 36.034 0 0 0 23.314 8.569h17.249a36.022 36.022 0 0 0 23.428-8.667l11.826-10.133z" fill="#fbb8b0"/><path d="m328 104h-144v111.159a20 20 0 0 0 7.048 15.24l43.352 36.841a20 20 0 0 0 12.951 4.76h17.249a20 20 0 0 0 13.015-4.815l43.4-37.2a20 20 0 0 0 6.985-15.185z" fill="#ffd4cf"/></g><path d="m152 136h22a10 10 0 0 1 10 10v28a10 10 0 0 1 -10 10h-22a0 0 0 0 1 0 0v-48a0 0 0 0 1 0 0z" fill="#ffd4cf" transform="matrix(-1 0 0 -1 336 320)"/><path d="m338 136h22a0 0 0 0 1 0 0v48a0 0 0 0 1 0 0h-22a10 10 0 0 1 -10-10v-28a10 10 0 0 1 10-10z" fill="#ffd4cf" transform="matrix(-1 0 0 -1 688 320)"/><path d="m280 144h16v24h-16z"/><path d="m232 168h-16v-24h8 8z"/><path d="m224 208h64a0 0 0 0 1 0 0 24 24 0 0 1 -24 24h-16a24 24 0 0 1 -24-24 0 0 0 0 1 0 0z"/></g><path d="m304 424h48v16h-48z"/><path d="m431.773 345.106-88.854-34.555h-.014l-29.486-11.467-8.187-45.027 20.99-17.991a27.968 27.968 0 0 0 9.778-21.266v-22.8h14a18.021 18.021 0 0 0 18-18v-28a18.021 18.021 0 0 0 -18-18h-14v-19.04a18 18 0 0 0 8-14.96v-6h-16v6a2 2 0 0 1 -2 2h-30v-44.9l23.8 7.932a11.984 11.984 0 0 1 8.2 11.383v1.585h16v-1.585a27.964 27.964 0 0 0 -19.146-26.563l-30.872-10.291a28.045 28.045 0 0 0 -25.982-17.561h-100a8 8 0 0 0 -8 8v60a28.035 28.035 0 0 0 16 25.3v18.7h-14a18.021 18.021 0 0 0 -18 18v28a18.021 18.021 0 0 0 18 18h14v23.159a27.956 27.956 0 0 0 9.868 21.336l20.868 17.734-8.155 44.85-29.481 11.467h-.01l-51.99 20.22 5.8 14.912 42.523-16.536a60 60 0 0 0 58.541 46.858h64.072a59.875 59.875 0 0 0 32-9.234l-8.536-13.531a43.885 43.885 0 0 1 -23.464 6.765h-64.072a44.056 44.056 0 0 1 -43.417-36.74l15.441-6a28.008 28.008 0 0 0 27.976 26.74h64.072a28.008 28.008 0 0 0 27.976-26.745l15.441 6a43.573 43.573 0 0 1 -9.637 20.933l12.284 10.257a60.327 60.327 0 0 0 12.477-25.3l79.4 30.876a21.863 21.863 0 0 1 14.023 20.501v99.478h-48v-56h-16v56h-240v-56h-16v56h-48v-99.478a21.863 21.863 0 0 1 14.026-20.5l22.016-8.562-5.8-14.912-22.017 8.562a37.764 37.764 0 0 0 -24.225 35.412v107.478a8 8 0 0 0 8 8h384a8 8 0 0 0 8-8v-107.478a37.764 37.764 0 0 0 -24.227-35.416zm-81.773-201.106a2 2 0 0 1 2 2v28a2 2 0 0 1 -2 2h-14v-32zm-70-100v52h-16v-52a27.836 27.836 0 0 0 -2.7-12h6.7a12.013 12.013 0 0 1 12 12zm-44-12a12.013 12.013 0 0 1 12 12v52h-28a12.013 12.013 0 0 1 -12-12v-52zm-60 0h16v52a27.836 27.836 0 0 0 2.7 12h-6.7a12.013 12.013 0 0 1 -12-12zm-14 144a2 2 0 0 1 -2-2v-28a2 2 0 0 1 2-2h14v32zm30 39.159v-103.159h128v102.8a11.982 11.982 0 0 1 -4.191 9.111l-43.4 37.2a12.008 12.008 0 0 1 -7.809 2.889h-17.249a12.009 12.009 0 0 1 -7.771-2.856l-43.351-36.844a11.979 11.979 0 0 1 -4.229-9.141zm105.249 108.53a11.969 11.969 0 0 1 -9.213 4.311h-64.072a12 12 0 0 1 -11.806-14.146l8.664-47.654 8.4 7.135a28.025 28.025 0 0 0 18.129 6.665h17.249a28.019 28.019 0 0 0 18.222-6.741l8.338-7.147 8.68 47.742a11.971 11.971 0 0 1 -2.591 9.835z"/></g></svg>